<?xml version="1.0" encoding="UTF-8" standalone="no"?>
<svg width="210px" height="32px" viewBox="0 0 210 32" version="1.1" xmlns="http://www.w3.org/2000/svg" xmlns:xlink="http://www.w3.org/1999/xlink">
    <!-- Generator: Sketch 44.1 (41455) - http://www.bohemiancoding.com/sketch -->
    <title>Group</title>
    <desc>Created with Sketch.</desc>
    <defs></defs>
    <g id="Page-1" stroke="none" stroke-width="1" fill="none" fill-rule="evenodd">
        <g id="Artboard-Copy-2" transform="translate(-32.000000, -32.000000)">
            <g id="Group" transform="translate(32.000000, 32.000000)">
                <path d="M43.696,17.952 C43.696,20.208 44.536,22.776 47.104,22.776 C49.864,22.776 50.512,20.208 50.512,17.952 C50.512,15.768 49.696,13.176 47.104,13.176 C44.368,13.176 43.696,15.696 43.696,17.952 Z M50.488,13.584 L50.488,6.672 L52.768,6.672 L52.768,21.864 C52.768,22.584 52.84,23.304 52.888,24 L50.56,24 L50.488,22.2 L50.488,22.08 L50.44,22.08 C49.624,23.76 48.04,24.36 46.288,24.36 C42.712,24.36 41.296,21.072 41.296,17.976 C41.296,14.712 42.952,11.592 46.696,11.592 C48.232,11.592 49.744,12.144 50.44,13.584 L50.488,13.584 Z M65.384,18.408 L56.888,18.408 C56.72,20.52 57.584,22.704 59.912,22.704 C61.688,22.704 62.576,22.008 62.84,20.256 L65.24,20.256 C64.88,22.992 62.768,24.36 59.888,24.36 C56.024,24.36 54.488,21.624 54.488,18.072 C54.488,14.544 56.264,11.592 60.08,11.592 C63.68,11.664 65.384,13.944 65.384,17.28 L65.384,18.408 Z M56.888,16.824 L62.984,16.824 C63.032,14.808 62.12,13.248 59.912,13.248 C58.016,13.248 56.888,14.856 56.888,16.824 Z M66.48,15.24 C66.48,19.944 73.8,17.928 73.8,20.616 C73.8,22.176 72.432,22.704 71.088,22.704 C69.696,22.704 68.688,21.912 68.64,20.424 L66.24,20.424 C66.216,23.208 68.328,24.36 70.848,24.36 C73.32,24.36 76.2,23.448 76.2,20.496 C76.2,17.784 73.848,17.544 71.808,16.872 C70.944,16.608 68.88,16.512 68.88,15.168 C68.88,13.824 69.864,13.248 71.088,13.248 C72.408,13.248 73.584,13.752 73.488,15.288 L75.888,15.288 C76.056,12.552 73.488,11.592 71.208,11.592 C69.024,11.592 66.48,12.72 66.48,15.24 Z M80.2960001,24 L80.2960001,11.952 L78.0160001,11.952 L78.0160001,24 L80.2960001,24 Z M77.8000001,9.144 L80.5120001,9.144 L80.5120001,6.672 L77.8000001,6.672 L77.8000001,9.144 Z M84.7040001,17.688 C84.7040001,19.584 85.4240001,22.128 88.0880001,22.128 C90.5600001,22.128 91.4720001,20.016 91.4720001,17.688 C91.4720001,15.36 90.5600001,13.248 88.0880001,13.248 C85.4240001,13.248 84.7040001,15.792 84.7040001,17.688 Z M91.4720001,13.752 L91.5440001,11.952 L93.8960001,11.952 C93.8240001,12.672 93.7520001,13.392 93.7520001,14.112 L93.7520001,22.584 C93.7520001,27 91.8320001,28.8 87.4160001,28.8 C84.8240001,28.8 82.9760001,27.696 82.9520001,24.912 L85.3520001,24.912 C85.4480001,26.52 86.5520001,27.144 88.1600001,27.144 C91.4000001,27.144 91.4000001,24.456 91.4720001,21.744 L91.4000001,21.744 C90.6800001,23.184 88.9280001,23.784 87.4400001,23.784 C83.7680001,23.784 82.3040001,21.192 82.3040001,17.808 C82.3040001,14.328 84.2480001,11.592 87.8960001,11.592 C89.0720001,11.592 90.3680001,12.072 91.1120001,13.176 C91.1600001,13.224 91.4720001,13.92 91.4720001,13.752 Z M98.7360001,11.952 L96.5040001,11.952 L96.5040001,24 L98.7840001,24 L98.7840001,17.448 C98.7840001,15.096 99.4080001,14.568 99.7440001,14.232 C100.704,13.272 101.952,13.344 101.952,13.344 C103.872,13.344 104.712,14.424 104.712,16.416 L104.712,24 L106.992,24 L106.992,15.672 C106.992,11.808 103.272,11.592 102.432,11.592 C101.232,11.592 99.5520001,12.216 98.7840001,13.728 L98.7360001,13.728 L98.7360001,11.952 Z M117.32,24 L117.32,17.808 C117.32,17.136 117.176,16.272 117.704,15.024 C118.136,14.016 119.528,13.32 120.44,13.344 C122.576,13.392 123.128,14.76 123.128,16.872 L123.128,24 L125.408,24 L125.408,15.84 C125.408,13.68 124.424,11.592 121.28,11.592 C119.528,11.592 118.232,12.216 117.368,13.56 L117.32,13.56 L117.32,6.672 L115.04,6.672 L115.04,24 L117.32,24 Z M136.392,18.144 C136.392,18.432 136.368,19.848 135.936,20.976 C135.456,22.224 134.184,22.704 133.248,22.704 C131.064,22.704 130.584,21.168 130.584,19.08 L130.584,11.952 L128.304,11.952 L128.304,20.016 C128.304,22.44 129.744,24.36 132.264,24.36 C133.944,24.36 135.48,23.736 136.392,22.224 L136.44,22.224 L136.44,24 L138.672,24 L138.672,11.952 L136.392,11.952 L136.392,18.144 Z M143.752,11.952 L141.52,11.952 L141.52,24 L143.8,24 L143.8,17.808 C143.8,17.52 143.704,15.936 143.968,15.312 C144.664,13.704 146.008,13.344 146.944,13.344 C149.128,13.344 149.608,14.784 149.608,16.872 L149.608,24 L151.888,24 L151.888,17.808 C151.888,17.52 151.816,16.32 152.128,15.216 C152.56,13.728 154.096,13.344 154.792,13.344 C157.456,13.344 157.696,15.216 157.696,16.872 L157.696,24 L159.976,24 L159.976,15.504 C159.976,13.344 158.272,11.592 155.488,11.592 C153.712,11.592 152.344,12.36 151.48,13.848 C150.856,12.36 149.512,11.592 147.232,11.592 C146.008,11.592 144.52,12.168 143.8,13.68 L143.752,13.68 L143.752,11.952 Z M169.856,18.144 L167.576,18.144 C166.184,18.216 164.336,18.72 164.336,20.472 C164.336,21.96 165.368,22.704 166.712,22.704 C169.4,22.704 169.904,20.376 169.856,18.144 Z M167.792,16.56 L169.856,16.56 C169.856,14.472 169.736,13.248 167.312,13.248 C166.16,13.248 165.08,13.92 165.056,15.168 L162.656,15.168 C162.776,12.528 164.84,11.592 167.216,11.592 C169.688,11.592 172.136,12.336 172.136,15.696 L172.136,21.456 C172.136,21.984 172.16,22.992 172.232,24 L170.696,24 C170.48,24 170.072,24.12 170.048,23.832 C170,23.28 169.952,22.752 169.928,22.2 L169.88,22.2 C169.136,23.712 167.792,24.36 166.136,24.36 C164.048,24.36 161.936,23.28 161.936,20.928 C161.936,17.544 164.936,16.56 167.792,16.56 Z M177,11.952 L174.768,11.952 L174.768,24 L177.048,24 L177.048,17.448 C177.048,15.096 177.672,14.568 178.008,14.232 C178.968,13.272 180.216,13.344 180.216,13.344 C182.136,13.344 182.976,14.424 182.976,16.416 L182.976,24 L185.256,24 L185.256,15.672 C185.256,11.808 181.536,11.592 180.696,11.592 C179.496,11.592 177.816,12.216 177.048,13.728 L177,13.728 L177,11.952 Z M190.36,24 L190.36,11.952 L188.08,11.952 L188.08,24 L190.36,24 Z M187.864,9.144 L190.576,9.144 L190.576,6.672 L187.864,6.672 L187.864,9.144 Z M192.416,15.24 C192.416,12.72 194.96,11.592 197.144,11.592 C199.424,11.592 201.992,12.552 201.824,15.288 L199.424,15.288 C199.52,13.752 198.344,13.248 197.024,13.248 C195.8,13.248 194.816,13.824 194.816,15.168 C194.816,16.512 196.88,16.608 197.744,16.872 C199.784,17.544 202.136,17.784 202.136,20.496 C202.136,23.448 199.256,24.36 196.784,24.36 C194.264,24.36 192.152,23.208 192.176,20.424 L194.576,20.424 C194.624,21.912 195.632,22.704 197.024,22.704 C198.368,22.704 199.736,22.176 199.736,20.616 C199.736,17.928 192.416,19.944 192.416,15.24 Z M201.96,11.88 L204.024,11.952 L204.024,9.384 L206.304,8.664 L206.304,11.952 L209.088,11.88 L209.088,13.584 L206.304,13.56 L206.304,21.336 C206.304,22.2 206.976,22.608 207.792,22.608 C208.152,22.608 208.632,22.56 208.992,22.464 L208.992,24.216 C208.464,24.24 207.96,24.36 207.432,24.36 C206.88,24.36 206.448,24.336 205.896,24.24 C205.536,24.168 204.936,23.976 204.552,23.448 C204.144,22.872 204.024,22.824 204.024,21.216 L204.024,13.56 L201.96,13.584 L201.96,11.88 Z" id="design-humanist" fill="#202020"></path>
                <g id="logo">
                    <rect id="Rectangle-2" fill="#202020" x="0" y="0" width="32" height="32"></rect>
                    <g id="Group" stroke-width="1" transform="translate(5.333333, 5.333333)" fill="#FFFFFF">
                        <rect id="Rectangle" x="0" y="0" width="7.75757576" height="1.93939394"></rect>
                        <rect id="Rectangle-Copy-2" x="0" y="3.87878788" width="7.75757576" height="1.93939394"></rect>
                        <rect id="Rectangle-Copy-4" x="0" y="7.75757576" width="7.75757576" height="1.93939394"></rect>
                        <rect id="Rectangle-Copy-6" x="0" y="11.6363636" width="21.3333333" height="1.93939394"></rect>
                        <rect id="Rectangle-Copy-8" x="0" y="15.5151515" width="7.75757576" height="1.93939394"></rect>
                        <rect id="Rectangle-Copy-10" x="0" y="19.3939394" width="7.75757576" height="1.93939394"></rect>
                        <rect id="Rectangle-Copy" x="13.5757576" y="0" width="7.75757576" height="1.93939394"></rect>
                        <rect id="Rectangle-Copy-3" x="13.5757576" y="3.87878788" width="7.75757576" height="1.93939394"></rect>
                        <rect id="Rectangle-Copy-5" x="13.5757576" y="7.75757576" width="7.75757576" height="1.93939394"></rect>
                        <rect id="Rectangle-Copy-9" x="13.5757576" y="15.5151515" width="7.75757576" height="1.93939394"></rect>
                        <rect id="Rectangle-Copy-11" x="13.5757576" y="19.3939394" width="7.75757576" height="1.93939394"></rect>
                    </g>
                </g>
            </g>
        </g>
    </g>
</svg>