<?xml version="1.0" encoding="UTF-8" standalone="no"?>
<svg width="201px" height="24px" viewBox="0 0 201 24" version="1.1" xmlns="http://www.w3.org/2000/svg" xmlns:xlink="http://www.w3.org/1999/xlink">
    <!-- Generator: Sketch 44.1 (41455) - http://www.bohemiancoding.com/sketch -->
    <title>Group</title>
    <desc>Created with Sketch.</desc>
    <defs></defs>
    <g id="Page-1" stroke="none" stroke-width="1" fill="none" fill-rule="evenodd">
        <g id="Artboard" transform="translate(-37.000000, -37.000000)">
            <g id="Group" transform="translate(32.000000, 32.000000)">
                <path d="M39.696,17.952 C39.696,20.208 40.536,22.776 43.104,22.776 C45.864,22.776 46.512,20.208 46.512,17.952 C46.512,15.768 45.696,13.176 43.104,13.176 C40.368,13.176 39.696,15.696 39.696,17.952 Z M46.488,13.584 L46.488,6.672 L48.768,6.672 L48.768,21.864 C48.768,22.584 48.84,23.304 48.888,24 L46.56,24 L46.488,22.2 L46.488,22.08 L46.44,22.08 C45.624,23.76 44.04,24.36 42.288,24.36 C38.712,24.36 37.296,21.072 37.296,17.976 C37.296,14.712 38.952,11.592 42.696,11.592 C44.232,11.592 45.744,12.144 46.44,13.584 L46.488,13.584 Z M61.384,18.408 L52.888,18.408 C52.72,20.52 53.584,22.704 55.912,22.704 C57.688,22.704 58.576,22.008 58.84,20.256 L61.24,20.256 C60.88,22.992 58.768,24.36 55.888,24.36 C52.024,24.36 50.488,21.624 50.488,18.072 C50.488,14.544 52.264,11.592 56.08,11.592 C59.68,11.664 61.384,13.944 61.384,17.28 L61.384,18.408 Z M52.888,16.824 L58.984,16.824 C59.032,14.808 58.12,13.248 55.912,13.248 C54.016,13.248 52.888,14.856 52.888,16.824 Z M62.48,15.24 C62.48,19.944 69.8,17.928 69.8,20.616 C69.8,22.176 68.432,22.704 67.088,22.704 C65.696,22.704 64.688,21.912 64.64,20.424 L62.24,20.424 C62.216,23.208 64.328,24.36 66.848,24.36 C69.32,24.36 72.2,23.448 72.2,20.496 C72.2,17.784 69.848,17.544 67.808,16.872 C66.944,16.608 64.88,16.512 64.88,15.168 C64.88,13.824 65.864,13.248 67.088,13.248 C68.408,13.248 69.584,13.752 69.488,15.288 L71.888,15.288 C72.056,12.552 69.488,11.592 67.208,11.592 C65.024,11.592 62.48,12.72 62.48,15.24 Z M76.2960001,24 L76.2960001,11.952 L74.0160001,11.952 L74.0160001,24 L76.2960001,24 Z M73.8000001,9.144 L76.5120001,9.144 L76.5120001,6.672 L73.8000001,6.672 L73.8000001,9.144 Z M80.7040001,17.688 C80.7040001,19.584 81.4240001,22.128 84.0880001,22.128 C86.5600001,22.128 87.4720001,20.016 87.4720001,17.688 C87.4720001,15.36 86.5600001,13.248 84.0880001,13.248 C81.4240001,13.248 80.7040001,15.792 80.7040001,17.688 Z M87.4720001,13.752 L87.5440001,11.952 L89.8960001,11.952 C89.8240001,12.672 89.7520001,13.392 89.7520001,14.112 L89.7520001,22.584 C89.7520001,27 87.8320001,28.8 83.4160001,28.8 C80.8240001,28.8 78.9760001,27.696 78.9520001,24.912 L81.3520001,24.912 C81.4480001,26.52 82.5520001,27.144 84.1600001,27.144 C87.4000001,27.144 87.4000001,24.456 87.4720001,21.744 L87.4000001,21.744 C86.6800001,23.184 84.9280001,23.784 83.4400001,23.784 C79.7680001,23.784 78.3040001,21.192 78.3040001,17.808 C78.3040001,14.328 80.2480001,11.592 83.8960001,11.592 C85.0720001,11.592 86.3680001,12.072 87.1120001,13.176 C87.1600001,13.224 87.4720001,13.92 87.4720001,13.752 Z M94.7360001,11.952 L92.5040001,11.952 L92.5040001,24 L94.7840001,24 L94.7840001,17.448 C94.7840001,15.096 95.4080001,14.568 95.7440001,14.232 C96.7040001,13.272 97.9520001,13.344 97.9520001,13.344 C99.8720001,13.344 100.712,14.424 100.712,16.416 L100.712,24 L102.992,24 L102.992,15.672 C102.992,11.808 99.2720001,11.592 98.4320001,11.592 C97.2320001,11.592 95.5520001,12.216 94.7840001,13.728 L94.7360001,13.728 L94.7360001,11.952 Z M113.32,24 L113.32,17.808 C113.32,17.136 113.176,16.272 113.704,15.024 C114.136,14.016 115.528,13.32 116.44,13.344 C118.576,13.392 119.128,14.76 119.128,16.872 L119.128,24 L121.408,24 L121.408,15.84 C121.408,13.68 120.424,11.592 117.28,11.592 C115.528,11.592 114.232,12.216 113.368,13.56 L113.32,13.56 L113.32,6.672 L111.04,6.672 L111.04,24 L113.32,24 Z M132.392,18.144 C132.392,18.432 132.368,19.848 131.936,20.976 C131.456,22.224 130.184,22.704 129.248,22.704 C127.064,22.704 126.584,21.168 126.584,19.08 L126.584,11.952 L124.304,11.952 L124.304,20.016 C124.304,22.44 125.744,24.36 128.264,24.36 C129.944,24.36 131.48,23.736 132.392,22.224 L132.44,22.224 L132.44,24 L134.672,24 L134.672,11.952 L132.392,11.952 L132.392,18.144 Z M139.752,11.952 L137.52,11.952 L137.52,24 L139.8,24 L139.8,17.808 C139.8,17.52 139.704,15.936 139.968,15.312 C140.664,13.704 142.008,13.344 142.944,13.344 C145.128,13.344 145.608,14.784 145.608,16.872 L145.608,24 L147.888,24 L147.888,17.808 C147.888,17.52 147.816,16.32 148.128,15.216 C148.56,13.728 150.096,13.344 150.792,13.344 C153.456,13.344 153.696,15.216 153.696,16.872 L153.696,24 L155.976,24 L155.976,15.504 C155.976,13.344 154.272,11.592 151.488,11.592 C149.712,11.592 148.344,12.36 147.48,13.848 C146.856,12.36 145.512,11.592 143.232,11.592 C142.008,11.592 140.52,12.168 139.8,13.68 L139.752,13.68 L139.752,11.952 Z M165.856,18.144 L163.576,18.144 C162.184,18.216 160.336,18.72 160.336,20.472 C160.336,21.96 161.368,22.704 162.712,22.704 C165.4,22.704 165.904,20.376 165.856,18.144 Z M163.792,16.56 L165.856,16.56 C165.856,14.472 165.736,13.248 163.312,13.248 C162.16,13.248 161.08,13.92 161.056,15.168 L158.656,15.168 C158.776,12.528 160.84,11.592 163.216,11.592 C165.688,11.592 168.136,12.336 168.136,15.696 L168.136,21.456 C168.136,21.984 168.16,22.992 168.232,24 L166.696,24 C166.48,24 166.072,24.12 166.048,23.832 C166,23.28 165.952,22.752 165.928,22.2 L165.88,22.2 C165.136,23.712 163.792,24.36 162.136,24.36 C160.048,24.36 157.936,23.28 157.936,20.928 C157.936,17.544 160.936,16.56 163.792,16.56 Z M173,11.952 L170.768,11.952 L170.768,24 L173.048,24 L173.048,17.448 C173.048,15.096 173.672,14.568 174.008,14.232 C174.968,13.272 176.216,13.344 176.216,13.344 C178.136,13.344 178.976,14.424 178.976,16.416 L178.976,24 L181.256,24 L181.256,15.672 C181.256,11.808 177.536,11.592 176.696,11.592 C175.496,11.592 173.816,12.216 173.048,13.728 L173,13.728 L173,11.952 Z M186.36,24 L186.36,11.952 L184.08,11.952 L184.08,24 L186.36,24 Z M183.864,9.144 L186.576,9.144 L186.576,6.672 L183.864,6.672 L183.864,9.144 Z M188.416,15.24 C188.416,12.72 190.96,11.592 193.144,11.592 C195.424,11.592 197.992,12.552 197.824,15.288 L195.424,15.288 C195.52,13.752 194.344,13.248 193.024,13.248 C191.8,13.248 190.816,13.824 190.816,15.168 C190.816,16.512 192.88,16.608 193.744,16.872 C195.784,17.544 198.136,17.784 198.136,20.496 C198.136,23.448 195.256,24.36 192.784,24.36 C190.264,24.36 188.152,23.208 188.176,20.424 L190.576,20.424 C190.624,21.912 191.632,22.704 193.024,22.704 C194.368,22.704 195.736,22.176 195.736,20.616 C195.736,17.928 188.416,19.944 188.416,15.24 Z M197.96,11.88 L200.024,11.952 L200.024,9.384 L202.304,8.664 L202.304,11.952 L205.088,11.88 L205.088,13.584 L202.304,13.56 L202.304,21.336 C202.304,22.2 202.976,22.608 203.792,22.608 C204.152,22.608 204.632,22.56 204.992,22.464 L204.992,24.216 C204.464,24.24 203.96,24.36 203.432,24.36 C202.88,24.36 202.448,24.336 201.896,24.24 C201.536,24.168 200.936,23.976 200.552,23.448 C200.144,22.872 200.024,22.824 200.024,21.216 L200.024,13.56 L197.96,13.584 L197.96,11.88 Z" id="design-humanist" fill="#202020"></path>
                <g id="logo">
                    <g id="Group" stroke-width="1" fill-rule="evenodd" transform="translate(5.333333, 5.333333)" fill="#202020">
                        <rect id="Rectangle" x="0" y="0" width="7.75757576" height="1.93939394"></rect>
                        <rect id="Rectangle-Copy-2" x="0" y="3.87878788" width="7.75757576" height="1.93939394"></rect>
                        <rect id="Rectangle-Copy-4" x="0" y="7.75757576" width="7.75757576" height="1.93939394"></rect>
                        <rect id="Rectangle-Copy-6" x="0" y="11.6363636" width="21.3333333" height="1.93939394"></rect>
                        <rect id="Rectangle-Copy-8" x="0" y="15.5151515" width="7.75757576" height="1.93939394"></rect>
                        <rect id="Rectangle-Copy-10" x="0" y="19.3939394" width="7.75757576" height="1.93939394"></rect>
                        <rect id="Rectangle-Copy" x="13.5757576" y="0" width="7.75757576" height="1.93939394"></rect>
                        <rect id="Rectangle-Copy-3" x="13.5757576" y="3.87878788" width="7.75757576" height="1.93939394"></rect>
                        <rect id="Rectangle-Copy-5" x="13.5757576" y="7.75757576" width="7.75757576" height="1.93939394"></rect>
                        <rect id="Rectangle-Copy-9" x="13.5757576" y="15.5151515" width="7.75757576" height="1.93939394"></rect>
                        <rect id="Rectangle-Copy-11" x="13.5757576" y="19.3939394" width="7.75757576" height="1.93939394"></rect>
                    </g>
                    <rect id="Rectangle-2" x="0" y="0" width="32" height="32"></rect>
                </g>
            </g>
        </g>
    </g>
</svg>